<?xml version="1.0" encoding="UTF-8" standalone="no"?>
<!-- Created with Inkscape (http://www.inkscape.org/) -->

<svg
   xmlns:dc="http://purl.org/dc/elements/1.1/"
   xmlns:cc="http://creativecommons.org/ns#"
   xmlns:rdf="http://www.w3.org/1999/02/22-rdf-syntax-ns#"
   xmlns:svg="http://www.w3.org/2000/svg"
   xmlns="http://www.w3.org/2000/svg"
   xmlns:sodipodi="http://sodipodi.sourceforge.net/DTD/sodipodi-0.dtd"
   xmlns:inkscape="http://www.inkscape.org/namespaces/inkscape"
   width="451.55554mm"
   height="88.088585mm"
   viewBox="0 0 1600 312.12491"
   id="svg2"
   version="1.1"
   inkscape:version="0.91 r13725"
   sodipodi:docname="VeloView.svg">
  <defs
     id="defs4" />
  <sodipodi:namedview
     id="base"
     pagecolor="#ffffff"
     bordercolor="#666666"
     borderopacity="1.0"
     inkscape:pageopacity="0.0"
     inkscape:pageshadow="2"
     inkscape:zoom="0.63859599"
     inkscape:cx="268.12354"
     inkscape:cy="43.630192"
     inkscape:document-units="px"
     inkscape:current-layer="layer1"
     showgrid="false"
     fit-margin-top="0"
     fit-margin-left="0"
     fit-margin-right="0"
     fit-margin-bottom="0"
     inkscape:window-width="1855"
     inkscape:window-height="1056"
     inkscape:window-x="1985"
     inkscape:window-y="54"
     inkscape:window-maximized="1" />
  <metadata
     id="metadata7">
    <rdf:RDF>
      <cc:Work
         rdf:about="">
        <dc:format>image/svg+xml</dc:format>
        <dc:type
           rdf:resource="http://purl.org/dc/dcmitype/StillImage" />
        <dc:title />
      </cc:Work>
    </rdf:RDF>
  </metadata>
  <g
     inkscape:label="Layer 1"
     inkscape:groupmode="layer"
     id="layer1"
     transform="translate(1353.127,-1339.9413)">
    <path
       style="fill:#0038a5;fill-opacity:1"
       d="m -606.01292,1339.9413 106.02981,310.8877 46.10057,0 c 36.57266,-103.0637 75.32685,-207.0604 108.95103,-310.8877 l -50.95561,0 -80.23361,231.0235 -83.19704,-231.0235 z m -747.11408,0.048 106.0299,310.8878 46.1005,0 c 36.5726,-103.0638 75.3269,-207.0605 108.9509,-310.8878 l -50.9555,0 -80.2335,231.0235 -83.1972,-231.0235 z m 520.39208,0.2168 -44.07193,0.407 0.61929,310.264 43.45264,0 z m 665.16475,77.4545 c -63.11676,-0.4372 -122.86701,53.1541 -118.06302,121.6302 8.23153,117.3327 167.08114,159.968 223.26371,39.4795 0,0 -34.728465,-12.6793 -41.21035,-15.0974 -20.81408,40.8657 -73.49747,57.444 -110.35126,26.1889 l 155.770486,-93.4394 c -27.10749,-56.783 -68.950146,-78.4819 -109.409566,-78.7618 z m -834.77683,1.2487 c -63.1168,-0.437 -122.867,53.1543 -118.063,121.6304 8.2315,117.3327 167.08117,159.9681 223.26374,39.4795 0,0 -34.72853,-12.6793 -41.21045,-15.0976 -20.81404,40.8659 -73.49749,57.4442 -110.35129,26.1891 l 155.77057,-93.4394 c -27.10747,-56.7829 -68.95015,-78.4819 -109.40957,-78.762 z m 652.8208,0 0.34596,48.4941 44.88798,0 -0.0159,-48.4893 -45.2187,0 z m 296.184287,0 79.343521,231.9678 45.46027,0 23.589187,-68.095 24.017205,68.095 45.03223,0 82.7725,-231.9678 -50.60729,0 -54.89597,153.7945 -21.87343,-60.4723 30.87988,-85.7757 -51.46574,0 -5.147062,12.2232 -3.002135,-12.2232 -47.605196,0 27.877764,85.7757 -22.730722,60.4723 -53.6106431,-153.7945 z m -645.822087,0.4164 c -20.50719,0.1475 -41.23356,5.7226 -59.95962,17.247 -54.47617,33.5261 -71.42289,104.7302 -37.73686,159.3099 33.91896,54.4361 105.36197,71.1103 159.76594,37.4681 54.40403,-33.642 71.19896,-104.8818 37.52686,-159.1794 -22.09733,-35.6329 -60.44636,-55.1281 -99.59632,-54.8456 z m 528.90833,43.7165 c 15.43494,0.1235 31.77803,5.5016 47.26156,17.6985 l -117.05567,68.761 c -8.60525,-46.9682 27.12108,-86.7994 69.79411,-86.4595 z m -834.77693,1.2489 c 15.43501,0.1235 31.7782,5.5016 47.2616,17.6985 l -117.0556,68.7611 c -8.6053,-46.9683 27.1211,-86.7995 69.794,-86.4596 z m 306.25097,0.6848 c 23.70242,-0.1713 46.92026,11.6323 60.29859,33.2055 20.38606,32.8734 10.21759,76.0035 -22.72014,96.3712 -32.93784,20.3679 -76.19243,10.2735 -96.72791,-22.6838 -20.39441,-33.0441 -10.13325,-76.1534 22.84802,-96.451 11.33734,-6.9772 23.88574,-10.3522 36.30144,-10.4419 z m 394.47062,31.3666 -44.03427,0.2076 -0.24509,154.327 44.41889,0 -0.13947,-154.5346 z"
       id="path4147"
       inkscape:connector-curvature="0"
       sodipodi:nodetypes="cccccccccccccccccccccssccccsssccccsccccccccccccccccccccccccccscsscccccccccssscsscccccc" />
  </g>
</svg>
