<?xml version="1.0" encoding="UTF-8" standalone="no"?>
<!-- Created with Inkscape (http://www.inkscape.org/) -->

<svg
   xmlns:dc="http://purl.org/dc/elements/1.1/"
   xmlns:cc="http://creativecommons.org/ns#"
   xmlns:rdf="http://www.w3.org/1999/02/22-rdf-syntax-ns#"
   xmlns:svg="http://www.w3.org/2000/svg"
   xmlns="http://www.w3.org/2000/svg"
   xmlns:sodipodi="http://sodipodi.sourceforge.net/DTD/sodipodi-0.dtd"
   xmlns:inkscape="http://www.inkscape.org/namespaces/inkscape"
   width="7.3168445cm"
   height="1.9572772cm"
   viewBox="0 0 73.168443 19.572772"
   version="1.1"
   id="svg7011"
   inkscape:version="0.92.2 (5c3e80d, 2017-08-06)"
   sodipodi:docname="ParaviewLidar.svg"
   inkscape:export-filename="/home/bjacquet/Dev/VeloView/VeloView-New/SoftwareInformation/ParaviewLidar.png"
   inkscape:export-xdpi="293.58936"
   inkscape:export-ydpi="293.58936">
  <defs
     id="defs7005" />
  <sodipodi:namedview
     id="base"
     pagecolor="#ffffff"
     bordercolor="#666666"
     borderopacity="1.0"
     inkscape:pageopacity="0.0"
     inkscape:pageshadow="2"
     inkscape:zoom="0.49497475"
     inkscape:cx="104.27321"
     inkscape:cy="63.717277"
     inkscape:document-units="mm"
     inkscape:current-layer="layer1"
     showgrid="false"
     fit-margin-top="0.2"
     fit-margin-left="0.2"
     fit-margin-right="0.2"
     fit-margin-bottom="0.2"
     inkscape:window-width="733"
     inkscape:window-height="394"
     inkscape:window-x="2689"
     inkscape:window-y="175"
     inkscape:window-maximized="0"
     units="cm" />
  <metadata
     id="metadata7008">
    <rdf:RDF>
      <cc:Work
         rdf:about="">
        <dc:format>image/svg+xml</dc:format>
        <dc:type
           rdf:resource="http://purl.org/dc/dcmitype/StillImage" />
        <dc:title></dc:title>
      </cc:Work>
    </rdf:RDF>
  </metadata>
  <g
     inkscape:label="Layer 1"
     inkscape:groupmode="layer"
     id="layer1"
     transform="translate(-49.594342,-61.183854)">
    <g
       id="g6948"
       transform="matrix(0.07101506,0,0,0.07101506,175.4764,-82.623344)">
      <g
         id="g6957"
         transform="translate(46.119404,23.059702)">
        <g
           id="g6972">
          <path
             sodipodi:nodetypes="cccscccccscccccccccccccccscccccscccccccscsccccccccccccccccccccscccccccccccccccccccccccccccccccccccsccsscccccccccsscccssccsccccsscccccccscccccccscccscccsccsccscccccccccsccccscccsc"
             inkscape:connector-curvature="0"
             id="path6826"
             d="m -1383.5556,2139.0408 c -6.1408,-2.1967 -9.0773,-4.8857 -11.0897,-10.1549 -2.7228,-7.1296 -0.277,-17.0107 6.1363,-24.7912 6.2307,-7.5589 20.4334,-12.0924 37.8836,-12.0924 9.3434,0 9.7988,-0.093 10.3392,-2.1094 3.8058,-14.201 -13.0098,-19.1996 -32.5946,-9.689 l -6.2559,3.0379 0.638,-4.2916 c 1.5795,-10.6244 2.4357,-12.4599 6.4597,-13.8478 5.4791,-1.8898 18.6552,-4.0376 24.7695,-4.0376 6.571,0 15.3536,2.2162 18.9604,4.7845 1.4953,1.0647 3.5907,3.6451 4.6564,5.734 2.8439,5.5745 2.053,17.2929 -2.7069,40.1065 -2.0979,10.0547 -4.084,20.2852 -4.4137,22.7344 l -0.5994,4.4531 h -8.9233 -8.9233 l 0.5433,-2.8125 c 0.2988,-1.5469 0.8107,-4.1836 1.1375,-5.8594 l 0.5944,-3.0468 -4.4145,4.0683 c -9.0256,8.3179 -21.9918,11.4647 -32.197,7.8139 z m 22.7653,-13.386 c 5.7783,-1.455 11.4442,-6.6512 14.6567,-13.4419 3.8352,-8.1068 3.6659,-8.9647 -1.7648,-8.942 -13.19,0.055 -23.2654,3.3572 -26.5176,8.6911 -2.0844,3.4186 -2.4096,8.9054 -0.6688,11.2861 2.2198,3.0357 7.9591,4.002 14.2945,2.4067 z m 119.0638,14.2797 c -6.8256,-1.8044 -10.7066,-4.9684 -13.0893,-10.6708 -4.349,-10.4086 2.2405,-25.0392 14.1204,-31.3518 7.241,-3.8475 17.6478,-5.9096 29.8244,-5.9096 h 9.8408 l 0.6144,-3.2751 c 1.5533,-8.2797 -3.9918,-13.6119 -14.1232,-13.5808 -4.9076,0.015 -14.7416,2.7665 -19.9284,5.5758 l -5.0109,2.714 0.6526,-4.3888 c 1.5954,-10.7299 2.4425,-12.5544 6.4742,-13.945 5.4791,-1.8898 18.6553,-4.0376 24.7696,-4.0376 6.6288,0 15.3622,2.2224 19.0484,4.8472 7.5726,5.3921 8.0293,14.4257 2.196,43.4341 -2.2811,11.3437 -4.4175,22.6289 -4.7475,25.0781 l -0.6001,4.4531 h -8.8913 -8.8913 l 0.5653,-3.5156 c 0.3108,-1.9336 0.7798,-4.5444 1.0422,-5.8018 0.4282,-2.0525 0.032,-1.8762 -3.8742,1.7246 -5.989,5.5205 -12.9732,8.545 -20.8135,9.0133 -3.5014,0.2091 -7.6317,0.046 -9.1786,-0.3633 z m 20.6238,-14.2797 c 5.7782,-1.455 11.4441,-6.6512 14.6567,-13.4419 3.8352,-8.1068 3.6658,-8.9647 -1.7649,-8.942 -13.1899,0.055 -23.2653,3.3572 -26.5176,8.6911 -2.0844,3.4186 -2.4095,8.9054 -0.6688,11.2861 2.2198,3.0357 7.9591,4.002 14.2946,2.4067 z m 212.3875,14.0734 c -6.2581,-1.2267 -13.7158,-5.2319 -16.8722,-9.0611 -7.9508,-9.6457 -7.522,-28.5588 1.0316,-45.5036 3.36,-6.6559 12.5886,-16.339 18.3958,-19.3016 13.35487,-6.8132 32.82335,-5.9125 41.14297,1.9034 5.51146,5.1778 7.89079,17.5736 5.97019,31.1037 l -1.15452,8.1333 h -26.72837 -26.72837 l 0.6496,4.4531 c 2.193,15.033 15.4317,18.8828 36.62946,10.6517 4.05126,-1.5731 7.45501,-2.7676 7.5639,-2.6544 0.10888,0.1132 -0.46521,3.5297 -1.27581,7.5921 -1.47128,7.3736 -1.48084,7.3894 -5.56089,9.1942 -8.97628,3.9706 -23.03759,5.4545 -33.06336,3.4892 z m 32.29491,-52.1102 c -0.006,-4.8104 -0.38569,-6.1944 -2.24722,-8.176 -7.2393,-7.7058 -21.76239,-4.0344 -28.15819,7.1185 -1.5685,2.7352 -2.8559,5.5101 -2.8607,6.1666 -0.01,0.9313 3.6458,1.1372 16.63182,0.9375 l 16.64064,-0.256 -0.007,-5.7906 z m -500.11951,49.6504 c 0.017,-0.9198 4.788,-24.0317 10.6028,-51.3598 l 10.5723,-49.6875 20.1004,0.01 c 22.0827,0.01 26.7032,0.7882 34.4275,5.8094 16.1135,10.4748 8.5403,41.4325 -12.7785,52.2356 -6.9054,3.4992 -15.2473,5.1987 -25.5953,5.2146 l -9.0465,0.014 -1.4883,6.7969 c -0.8186,3.7383 -2.6817,12.4922 -4.1404,19.4531 l -2.652,12.6563 -10.0162,0.2661 c -9.0955,0.2416 -10.0135,0.1123 -9.9858,-1.4063 z m 48.6636,-55.0901 c 6.2108,-2.1913 9.4907,-5.0801 12.006,-10.5742 5.4988,-12.011 -1.1744,-19.8938 -16.8541,-19.9091 -4.8011,0 -5.4258,0.2192 -5.8714,2.1042 -0.8664,3.6653 -6.0996,28.7964 -6.0996,29.2918 0,1.0828 13.1924,0.3669 16.8191,-0.9127 z m 115.752,55.0584 c 0.678,-2.1811 15.5539,-72.4777 15.5539,-73.5003 0,-0.4381 4.0159,-0.7966 8.9241,-0.7966 8.7737,0 8.916,0.035 8.4382,2.1094 -2.3959,10.4 -3.1151,13.9559 -2.7485,13.5894 0.2361,-0.2362 1.853,-2.4318 3.5929,-4.879 5.657,-7.9566 15.4376,-13.2628 23.1016,-12.533 3.7708,0.3591 3.8498,1.1137 1.3116,12.5222 l -1.5389,6.9172 -5.8162,-0.5432 c -4.7635,-0.4448 -6.5085,-0.1899 -9.6413,1.4083 -8.7246,4.451 -12.1805,11.7509 -17.7506,37.4949 -2.2676,10.4802 -4.1229,19.2342 -4.1229,19.4531 0,0.219 -4.4581,0.3982 -9.9069,0.3982 -9.0044,0 -9.8605,-0.1495 -9.397,-1.6406 z m 165.5524,0.9639 c -8e-4,-0.4012 -2.9539,-23.1905 -6.5625,-50.6427 -3.6085,-27.4523 -6.5609,-50.339 -6.5609,-50.8594 0,-0.5814 4.1284,-0.9462 10.7067,-0.9462 h 10.7068 l 0.5033,2.5781 c 0.2768,1.418 2.2231,18.3985 4.3252,37.7344 2.1021,19.3359 4.1395,36.4208 4.5275,37.9663 0.7842,3.1235 -0.6757,5.6681 30.2431,-52.7096 l 13.5186,-25.5246 10.0782,-0.022 c 5.5429,-0.012 10.0781,0.101 10.0781,0.2518 0,0.1507 -12.565,23.2484 -27.9221,51.3281 l -27.9221,51.0541 -12.8592,0.2608 c -7.0725,0.1434 -12.8598,-0.067 -12.8607,-0.4688 z m 74.6029,-9.3709 c 1.2032,-5.5597 4.8336,-22.6594 8.0675,-37.9993 l 5.88,-27.8906 h 9.6318 c 7.0959,0 9.6243,0.3086 9.6031,1.1719 -0.016,0.6445 -3.5341,17.625 -7.8184,37.7344 l -7.7898,36.5625 -9.8809,0.2649 -9.881,0.2649 z m 138.10857,9.8132 c -0.0564,-0.1289 -2.27562,-17.2148 -4.93149,-37.9687 l -4.82887,-37.7344 h 10.37582 10.37581 l 2.1025,25.5469 c 2.24907,27.3278 2.65752,30.5052 3.75319,29.1981 0.38666,-0.4613 6.56021,-12.9677 13.71896,-27.7919 l 13.016,-26.9531 h 11.54156 c 8.61516,0 11.53838,0.2971 11.52882,1.1719 -0.0459,4.189 4.03743,51.1884 4.56862,52.5845 0.47861,1.2579 4.33097,-5.781 14.22217,-25.986 l 13.56574,-27.7111 9.14063,-0.03 c 5.02734,-0.016 9.14062,0.2207 9.14062,0.5267 0,0.3061 -8.68978,17.392 -19.31055,37.9688 l -19.31064,37.4123 h -11.52036 -11.52048 l -0.52725,-3.9844 c -0.29007,-2.1914 -1.25352,-15.25 -2.14116,-29.0191 -0.88761,-13.7691 -1.87322,-24.8745 -2.19028,-24.6785 -0.31697,0.1959 -6.85622,13.2545 -14.53164,29.0191 l -13.95526,28.6629 h -11.08991 c -6.09945,0 -11.13609,-0.1055 -11.19255,-0.2344 z m -120.82107,-90.9375 c 0.012,-1.0063 0.6951,-4.2223 3.286,-15.4687 0.4663,-2.0241 0.8873,-2.1094 10.4121,-2.1094 8.0985,0 9.8339,0.2404 9.4251,1.3057 -0.2756,0.7182 -1.2222,4.937 -2.1036,9.375 l -1.6025,8.0693 h -9.7155 c -7.1547,0 -9.7118,-0.3089 -9.7016,-1.1719 z"
             style="fill:#182c37;fill-opacity:1;stroke-width:0.9375" />
          <g
             id="g6962">
            <path
               style="fill:#c0202a;fill-opacity:1;stroke-width:0.9375"
               d="m -1790.5671,2248.5395 c 0,-0.4818 3.7671,-15.1419 8.3713,-32.5781 4.6042,-17.4361 14.5449,-55.1161 22.0904,-83.7333 7.5455,-28.6172 16.4347,-62.3045 19.7537,-74.8608 3.319,-12.5562 6.0346,-22.9976 6.0346,-23.2031 0,-0.2055 15.5347,-0.3736 34.5215,-0.3736 h 34.5214 l -11.5747,43.8281 c -6.3661,24.1055 -18.9704,71.8828 -28.0095,106.1719 -9.0392,34.2891 -16.6514,63.082 -16.9162,63.9844 -0.447,1.5236 -2.9162,1.6406 -34.6369,1.6406 -20.5485,0 -34.1556,-0.349 -34.1556,-0.8761 z"
               id="path6826-3"
               inkscape:connector-curvature="0"
               sodipodi:nodetypes="scscsscsccss" />
            <path
               sodipodi:nodetypes="scscccccccs"
               inkscape:connector-curvature="0"
               id="path6921"
               d="m -1618.0671,2248.8893 c 0,-0.3022 4.4249,-17.2879 9.833,-37.746 5.4082,-20.458 18.1879,-68.8371 28.3994,-107.5089 l 18.5664,-70.3125 34.4902,-0.2461 34.4901,-0.246 -0.5922,2.5898 c -0.3258,1.4244 -13.1322,50.0507 -28.4589,108.0585 l -27.8665,105.4688 -34.4308,0.2459 c -18.9369,0.1352 -34.4307,0 -34.4307,-0.3035 z"
               style="fill:#054f8e;fill-opacity:1;stroke-width:0.9375" />
            <path
               style="fill:#1f9848;fill-opacity:1;stroke-width:0.9375"
               d="m -1704.2533,2248.2437 c 0.035,-0.6445 12.7968,-49.1647 28.3593,-107.8225 l 28.2956,-106.6507 34.4424,-0.2243 c 30.2438,-0.197 34.392,-0.053 34.0292,1.1819 -0.2272,0.7734 -12.4737,47.1797 -27.2144,103.125 -14.7406,55.9453 -27.4288,103.9336 -28.196,106.6406 l -1.3948,4.9219 h -34.1925 c -26.7631,0 -34.1787,-0.2546 -34.1288,-1.1719 z"
               id="path6923"
               inkscape:connector-curvature="0"
               sodipodi:nodetypes="csccccccsc" />
          </g>
          <text
             xml:space="preserve"
             style="font-style:normal;font-weight:normal;font-size:129.71986389px;line-height:125%;font-family:sans-serif;letter-spacing:0px;word-spacing:0px;fill:#4f4f4f;fill-opacity:1;stroke:none;stroke-width:0.48644945px;stroke-linecap:butt;stroke-linejoin:miter;stroke-opacity:1"
             x="-1503.2683"
             y="2247.6411"
             id="text6929"><tspan
               sodipodi:role="line"
               id="tspan6927"
               x="-1503.2683"
               y="2247.6411"
               style="font-style:italic;font-weight:bold;font-size:129.71986389px;fill:#4f4f4f;fill-opacity:1;stroke-width:0.48644945px">L<tspan
   style="font-style:italic;font-weight:bold;font-size:96.880867px;line-height:96.3999927%;fill:#4f4f4f;fill-opacity:1;stroke-width:0.48644945px"
   id="tspan6925">iDAR</tspan></tspan></text>
        </g>
      </g>
    </g>
  </g>
</svg>
