<?xml version="1.0" encoding="UTF-8" standalone="no"?>
<!-- Created with Inkscape (http://www.inkscape.org/) -->

<svg
   xmlns:dc="http://purl.org/dc/elements/1.1/"
   xmlns:cc="http://creativecommons.org/ns#"
   xmlns:rdf="http://www.w3.org/1999/02/22-rdf-syntax-ns#"
   xmlns:svg="http://www.w3.org/2000/svg"
   xmlns="http://www.w3.org/2000/svg"
   xmlns:sodipodi="http://sodipodi.sourceforge.net/DTD/sodipodi-0.dtd"
   xmlns:inkscape="http://www.inkscape.org/namespaces/inkscape"
   width="2896"
   height="1020"
   viewBox="0 0 2896 1020"
   id="svg2"
   version="1.1"
   inkscape:version="0.91 r13725"
   sodipodi:docname="logo.svg"
   inkscape:export-filename="/home/bjacquet/Dev/VeloView/VeloView/Splash.png"
   inkscape:export-xdpi="45"
   inkscape:export-ydpi="45">
  <defs
     id="defs4" />
  <sodipodi:namedview
     id="base"
     pagecolor="#ffffff"
     bordercolor="#666666"
     borderopacity="1.0"
     inkscape:pageopacity="0.0"
     inkscape:pageshadow="2"
     inkscape:zoom="0.35"
     inkscape:cx="1163.3687"
     inkscape:cy="177.78212"
     inkscape:document-units="px"
     inkscape:current-layer="layer1"
     showgrid="false"
     units="px"
     inkscape:window-width="1855"
     inkscape:window-height="1056"
     inkscape:window-x="1985"
     inkscape:window-y="54"
     inkscape:window-maximized="1" />
  <metadata
     id="metadata7">
    <rdf:RDF>
      <cc:Work
         rdf:about="">
        <dc:format>image/svg+xml</dc:format>
        <dc:type
           rdf:resource="http://purl.org/dc/dcmitype/StillImage" />
        <dc:title></dc:title>
      </cc:Work>
    </rdf:RDF>
  </metadata>
  <g
     inkscape:label="Layer 1"
     inkscape:groupmode="layer"
     id="layer1"
     transform="translate(0,-32.3616)">
    <g
       transform="matrix(1.6221814,0,0,1.6221814,2345.2723,-1991.4607)"
       id="layer1-3"
       inkscape:label="Layer 1">
      <path
         sodipodi:nodetypes="cccccccccccccccccccccssccccsssccccsccccccccccccccccccccccccccscsscccccccccssscsscccccc"
         inkscape:connector-curvature="0"
         id="path4147"
         d="m -606.01292,1339.9413 106.02981,310.8877 46.10057,0 c 36.57266,-103.0637 75.32685,-207.0604 108.95103,-310.8877 l -50.95561,0 -80.23361,231.0235 -83.19704,-231.0235 z m -747.11408,0.048 106.0299,310.8878 46.1005,0 c 36.5726,-103.0638 75.3269,-207.0605 108.9509,-310.8878 l -50.9555,0 -80.2335,231.0235 -83.1972,-231.0235 z m 520.39208,0.2168 -44.07193,0.407 0.61929,310.264 43.45264,0 z m 665.16475,77.4545 c -63.11676,-0.4372 -122.86701,53.1541 -118.06302,121.6302 8.23153,117.3327 167.08114,159.968 223.26371,39.4795 0,0 -34.728465,-12.6793 -41.21035,-15.0974 -20.81408,40.8657 -73.49747,57.444 -110.35126,26.1889 l 155.770486,-93.4394 c -27.10749,-56.783 -68.950146,-78.4819 -109.409566,-78.7618 z m -834.77683,1.2487 c -63.1168,-0.437 -122.867,53.1543 -118.063,121.6304 8.2315,117.3327 167.08117,159.9681 223.26374,39.4795 0,0 -34.72853,-12.6793 -41.21045,-15.0976 -20.81404,40.8659 -73.49749,57.4442 -110.35129,26.1891 l 155.77057,-93.4394 c -27.10747,-56.7829 -68.95015,-78.4819 -109.40957,-78.762 z m 652.8208,0 0.34596,48.4941 44.88798,0 -0.0159,-48.4893 -45.2187,0 z m 296.184287,0 79.343521,231.9678 45.46027,0 23.589187,-68.095 24.017205,68.095 45.03223,0 82.7725,-231.9678 -50.60729,0 -54.89597,153.7945 -21.87343,-60.4723 30.87988,-85.7757 -51.46574,0 -5.147062,12.2232 -3.002135,-12.2232 -47.605196,0 27.877764,85.7757 -22.730722,60.4723 -53.6106431,-153.7945 z m -645.822087,0.4164 c -20.50719,0.1475 -41.23356,5.7226 -59.95962,17.247 -54.47617,33.5261 -71.42289,104.7302 -37.73686,159.3099 33.91896,54.4361 105.36197,71.1103 159.76594,37.4681 54.40403,-33.642 71.19896,-104.8818 37.52686,-159.1794 -22.09733,-35.6329 -60.44636,-55.1281 -99.59632,-54.8456 z m 528.90833,43.7165 c 15.43494,0.1235 31.77803,5.5016 47.26156,17.6985 l -117.05567,68.761 c -8.60525,-46.9682 27.12108,-86.7994 69.79411,-86.4595 z m -834.77693,1.2489 c 15.43501,0.1235 31.7782,5.5016 47.2616,17.6985 l -117.0556,68.7611 c -8.6053,-46.9683 27.1211,-86.7995 69.794,-86.4596 z m 306.25097,0.6848 c 23.70242,-0.1713 46.92026,11.6323 60.29859,33.2055 20.38606,32.8734 10.21759,76.0035 -22.72014,96.3712 -32.93784,20.3679 -76.19243,10.2735 -96.72791,-22.6838 -20.39441,-33.0441 -10.13325,-76.1534 22.84802,-96.451 11.33734,-6.9772 23.88574,-10.3522 36.30144,-10.4419 z m 394.47062,31.3666 -44.03427,0.2076 -0.24509,154.327 44.41889,0 -0.13947,-154.5346 z"
         style="fill:#0038a5;fill-opacity:1" />
    </g>
    <g
       id="g4307"
       transform="matrix(1.2575933,0,0,1.2575933,-39.248302,-201.94221)">
      <g
         transform="matrix(1.7622326,0,0,1.7622326,245.33844,807.95444)"
         id="g4196">
        <g
           id="g4143">
          <g
             id="g4145">
            <polygon
               style="fill:#0038a5"
               class="st0"
               points="52.9,7.5 35.6,56.7 28.4,56.7 11.5,7.5 19.1,7.5 32,44.7 44.9,7.5 "
               id="polygon4147" />
            <rect
               style="fill:#0038a5"
               x="86.699997"
               y="7.5"
               class="st0"
               width="7.1999998"
               height="49.200001"
               id="rect4149" />
            <path
               style="fill:#0038a5"
               inkscape:connector-curvature="0"
               class="st0"
               d="m 115.2,49.9 c 6.3,0 11.4,-5.1 11.4,-11.4 0,-6.3 -5.1,-11.4 -11.4,-11.4 -6.3,0 -11.4,5.1 -11.4,11.4 0,6.3 5.1,11.4 11.4,11.4 z M 96.8,38.4 C 96.8,28.3 105,20 115.2,20 c 10.1,0 18.4,8.2 18.4,18.4 0,10.1 -8.2,18.4 -18.4,18.4 C 105,56.7 96.8,48.5 96.8,38.4 Z"
               id="path4151" />
            <path
               style="fill:#0038a5"
               inkscape:connector-curvature="0"
               class="st0"
               d="M 221.9,56.7"
               id="path4153" />
            <path
               style="fill:#0038a5"
               inkscape:connector-curvature="0"
               class="st0"
               d="m 231.4,20.2 c -10.4,0 -17,7.5 -17,18.3 l 0,18.3 7.2,0 0,-17.5 c 0,-6.8 3.6,-11.8 9.9,-11.8 6.3,0 8.9,5.9 8.9,11.8 0,0.5 -0.1,12.8 -0.1,17.5 l 7.3,0 c 0,0 0,-17.2 0,-18.3 -0.1,-9.3 -6.2,-18.3 -16.2,-18.3 z"
               id="path4155" />
            <path
               style="fill:#0038a5"
               inkscape:connector-curvature="0"
               class="st0"
               d="m 280.4,43.2 c -1.8,3.9 -5.7,6.7 -10.4,6.7 -2.7,0 -5.2,-0.9 -7.1,-2.5 L 287.5,32.7 C 285.1,25.4 278.2,20 270,20 c -10.1,0 -18.4,8.2 -18.4,18.4 0,10.1 8.2,18.4 18.4,18.4 7.6,0 14.1,-4.6 16.9,-11.2 -2,-0.7 -4.8,-1.8 -6.5,-2.4 z m -21.7,-4.7 c 0,-6.3 5.1,-11.4 11.4,-11.4 2.9,0 5.6,1.1 7.7,3 L 259,41.3 c -0.2,-0.9 -0.3,-1.8 -0.3,-2.8 z"
               id="path4157" />
            <path
               style="fill:#0038a5"
               inkscape:connector-curvature="0"
               class="st0"
               d="m 77.1,43.2 c -1.8,3.9 -5.7,6.7 -10.4,6.7 -2.7,0 -5.2,-0.9 -7.1,-2.5 L 84.2,32.7 C 81.8,25.4 74.9,20 66.7,20 56.6,20 48.3,28.2 48.3,38.4 c 0,10.1 8.2,18.4 18.4,18.4 7.6,0 14.1,-4.6 16.9,-11.2 -2,-0.7 -4.8,-1.8 -6.5,-2.4 z M 55.4,38.5 c 0,-6.3 5.1,-11.4 11.4,-11.4 2.9,0 5.6,1.1 7.7,3 L 55.7,41.3 c -0.2,-0.9 -0.3,-1.8 -0.3,-2.8 z"
               id="path4159" />
            <path
               style="fill:#0038a5"
               inkscape:connector-curvature="0"
               class="st0"
               d="m 202.5,20.2 0,0 0,18.2 c -0.2,6.4 -3.8,11 -9.8,11 -6.3,0 -8.9,-5.9 -8.9,-11.8 0,-0.5 0.1,-12.8 0.1,-17.5 l -7.3,0 c 0,0 0,17.2 0,18.3 0,9.2 6.1,18.3 16.1,18.3 3.8,0 7.1,-1 9.8,-2.8 l 0,0.5 c 0,6.7 -2.7,13.2 -14.3,13.2 -1.2,0 -10,0 -11.3,0 l 0,6.9 11.3,0 c 18,0 21.6,-9.5 21.6,-21.2 l 0,-14.8 0,-18.3 -7.3,0 z"
               id="path4161" />
            <path
               style="fill:#0038a5"
               inkscape:connector-curvature="0"
               class="st0"
               d="m 172.5,38.8 c 0,-0.1 0,-0.2 0,-0.4 0,-0.1 0,-0.2 0,-0.4 l 0,-9.2 0,-3.9 0,-17.4 -7.6,0 0,16 c -3,-2.2 -6.7,-3.5 -10.7,-3.5 -10.1,0 -18.4,8.2 -18.4,18.4 0,10.1 8.2,18.4 18.4,18.4 10,0 18.1,-7.9 18.3,-17.8 l 0,0 0,-0.2 z m -18.3,11.1 c -6.3,0 -11.4,-5.1 -11.4,-11.4 0,-6.3 5.1,-11.4 11.4,-11.4 6.3,0 11.4,5.1 11.4,11.4 -0.1,6.3 -5.2,11.4 -11.4,11.4 z"
               id="path4163" />
          </g>
          <g
             id="g4165">
            <path
               style="fill:#0038a5"
               inkscape:connector-curvature="0"
               class="st0"
               d="m 314.1,36.6 0,-0.5 0,-15.5 0,-9.8 0,0 -7.2,0 0,9.9 0,14.8 c 0,11.7 3.6,21.1 21.5,21.1 l 11.3,0 0,-6.9 c -1.2,0 -10.1,0 -11.3,0 -11.6,0 -14.3,-6.4 -14.3,-13.1 z"
               id="path4167" />
            <g
               id="g4169">
              <rect
                 style="fill:#0038a5"
                 x="344.5"
                 y="23.299999"
                 class="st0"
                 width="7.1999998"
                 height="33.299999"
                 id="rect4171" />
              <circle
                 style="fill:#0038a5"
                 class="st0"
                 cx="348.10001"
                 cy="14.3"
                 r="3.5999999"
                 id="circle4173" />
            </g>
            <path
               style="fill:#0038a5"
               inkscape:connector-curvature="0"
               class="st0"
               d="m 389.3,31.9 0,0 c 0,-11.7 -3.6,-21.1 -21.5,-21.1 l -4,0 -7.2,0 0,6.9 0,32 0,6.9 7.2,0 4,0 c 18,0 21.5,-9.4 21.5,-21.1 l 0,-3.6 z m -7.2,4.2 0,0.5 c 0,6.7 -2.7,13.1 -14.3,13.1 -0.5,0 -2.1,0 -4,0 l 0,-32 c 1.9,0 3.5,0 4,0 11.6,0 14.3,6.4 14.3,13.1 l 0,2.7 0,0 0,2.6 z"
               id="path4175" />
            <path
               style="fill:#0038a5"
               inkscape:connector-curvature="0"
               class="st0"
               d="m 405.3,10.8 -16.9,45.8 7.6,0 2.9,-8.3 20,0 2.9,8.3 8,0 -17.3,-45.8 -7.2,0 z m -3.9,30.3 7.5,-19.7 7.5,19.7 -15,0 z"
               id="path4177" />
            <path
               style="fill:#0038a5"
               inkscape:connector-curvature="0"
               class="st0"
               d="m 450.9,39 c 3.3,-0.7 6,-2.3 8.1,-4.8 2,-2.5 3.1,-5.5 3.1,-9 0,-4.5 -1.6,-8.1 -4.9,-10.8 -3,-2.4 -7.8,-3.7 -14.4,-3.7 l -8.9,0 0,45.9 7.6,0 0,-16.8 1.4,0 14.4,16.8 9.3,0 L 450.9,39 Z m -9.4,-5.7 0,-15.6 2.7,0 c 7,0 10.5,2.5 10.5,7.6 0,5.4 -3.6,8.1 -10.8,8.1 l -2.4,0 z"
               id="path4179" />
          </g>
        </g>
        <g
           id="g4181">
          <g
             id="g4183">
            <path
               style="fill:#0038a5"
               inkscape:connector-curvature="0"
               class="st0"
               d="m 461.3,3.6 6.4,0 0,0.9 -2.7,0 0,7 -1,0 0,-7 -2.7,0 0,-0.9 z"
               id="path4185" />
            <path
               style="fill:#0038a5"
               inkscape:connector-curvature="0"
               class="st0"
               d="m 475.3,11.5 0,-4.7 c 0,-0.2 0,-1.2 0,-2 l 0,0 -2.2,6.6 -1.1,0 -2.2,-6.6 0,0 c 0,0.7 0,1.7 0,2 l 0,4.7 -1,0 0,-7.9 1.5,0 2.3,6.7 0,0 2.2,-6.7 1.5,0 0,7.9 -1,0 z"
               id="path4187" />
          </g>
        </g>
      </g>
      <text
         sodipodi:linespacing="125%"
         id="text4299"
         y="903.97296"
         x="143.57722"
         style="font-style:normal;font-weight:normal;font-size:39.14281464px;line-height:125%;font-family:sans-serif;letter-spacing:0px;word-spacing:0px;fill:#000000;fill-opacity:1;stroke:none;stroke-width:1px;stroke-linecap:butt;stroke-linejoin:miter;stroke-opacity:1"
         xml:space="preserve"><tspan
           style="font-size:78.28562927px;fill:#5f5f5f;fill-opacity:1"
           y="903.97296"
           x="143.57722"
           id="tspan4301"
           sodipodi:role="line">by</tspan></text>
    </g>
    <g
       id="g4337"
       transform="matrix(1.2575933,0,0,1.2575933,-707.2856,-201.94221)">
      <g
         id="g4559">
        <g
           id="g4278"
           transform="matrix(3.1707882,0,0,3.1707882,2163.9055,769.06065)">
          <g
             id="LogoMark" />
          <g
             id="Kitware">
            <g
               id="g4237">
              <g
                 id="g4239">
                <path
                   id="path4241"
                   d="m 29,43.5 c -0.6,0 -1.1,0 -1.7,0 -16.5,-4.4 -16.8,-27.3 -1,-31.7 1.2,0 2.4,0 3.6,0 C 13.5,16.2 13.2,39.1 29,43.5 Z"
                   class="st0"
                   inkscape:connector-curvature="0"
                   style="fill:#00539b" />
              </g>
              <g
                 id="g4243">
                <path
                   id="path4245"
                   d="m 32.7,44.9 c -0.6,0 -1.1,0 -1.7,0 -16.5,-4.4 -16.8,-27.3 -1,-31.7 1.2,0 2.4,0 3.6,0 -16.4,4.4 -16.7,27.3 -0.9,31.7 z"
                   class="st0"
                   inkscape:connector-curvature="0"
                   style="fill:#00539b" />
              </g>
              <g
                 id="g4247">
                <path
                   id="path4249"
                   d="m 36.4,46.2 c -0.6,0 -1.1,0 -1.7,0 -16.5,-4.4 -16.8,-27.3 -1,-31.7 1.2,0 2.4,0 3.6,0 C 20.9,19 20.6,41.8 36.4,46.2 Z"
                   class="st0"
                   inkscape:connector-curvature="0"
                   style="fill:#00539b" />
              </g>
              <path
                 id="path4251"
                 d="M 7.9,45.3 C 7.6,45 7.3,44.8 7.1,44.5 10.2,32.4 8.4,20.8 2.9,12.2 c 1,-1 2,-2 3.1,-2.9 5.3,10.7 6.1,23.7 1.9,36 z"
                 class="st1"
                 inkscape:connector-curvature="0"
                 style="fill:#00a94f" />
              <path
                 id="path4253"
                 d="M 9.1,46.5 C 8.8,46.2 8.5,46 8.3,45.7 12.9,33.2 12.5,19.8 7.2,8.2 c 1,-1 2,-1.9 3.1,-2.9 5.1,13.6 4.6,28.4 -1.2,41.2 z"
                 class="st1"
                 inkscape:connector-curvature="0"
                 style="fill:#00a94f" />
              <path
                 id="path4255"
                 d="M 10.3,47.6 C 10,47.3 9.7,47.1 9.5,46.8 15.7,34 16.6,18.6 11.5,4.1 c 1,-1 2,-2 3.1,-2.9 4.8,16.6 3.1,33.3 -4.3,46.4 z"
                 class="st1"
                 inkscape:connector-curvature="0"
                 style="fill:#00a94f" />
              <path
                 id="path4257"
                 d="m 51.7,16.1 -2.4,10.9 0.1,0 11,-10.9 7.7,0 -14,12.6 8.9,15.1 -6.6,0 -7.7,-14.1 -3,14.1 -5.5,0 5.9,-27.7 5.6,0 z"
                 class="st0"
                 inkscape:connector-curvature="0"
                 style="fill:#00539b" />
              <path
                 id="path4259"
                 d="m 70.2,23.4 5.3,0 -4.4,20.4 -5.3,0 4.4,-20.4 z m 1.9,-8.8 5.3,0 -1.1,5.1 -5.3,0 1.1,-5.1 z"
                 class="st0"
                 inkscape:connector-curvature="0"
                 style="fill:#00539b" />
              <path
                 id="path4261"
                 d="m 78.6,23.4 3.8,0 0.9,-4.2 5.7,-1.9 -1.3,6.1 4.8,0 -0.8,3.9 -4.8,0 -1.9,8.9 c -0.1,0.5 -0.2,1.2 -0.2,2 0,1.2 0.8,2 2,2 1,0 1.9,-0.2 2.6,-0.5 l -0.9,4.1 c -0.9,0.2 -1.9,0.5 -2.9,0.5 -3.6,0 -6.1,-1.4 -6.1,-5.3 0,-1.6 0.3,-3.1 0.7,-4.8 l 1.5,-6.9 -3.8,0 0.7,-3.9 z"
                 class="st0"
                 inkscape:connector-curvature="0"
                 style="fill:#00539b" />
              <path
                 id="path4263"
                 d="m 94.7,23.4 5.3,0 1.5,15.3 0.1,0 7.5,-15.3 5.9,0 1.1,15.3 0.1,0 7.8,-15.3 5.4,0 -11.3,20.4 -6,0 -1.2,-15.6 -0.1,0 -7.4,15.6 -6,0 -2.7,-20.4 z"
                 class="st0"
                 inkscape:connector-curvature="0"
                 style="fill:#00539b" />
              <path
                 id="path4265"
                 d="m 139.9,40.7 0,0 c -1.9,2.3 -3.7,3.6 -6.7,3.6 -3.7,0 -6.3,-2.1 -6.3,-5.8 0,-6.7 7.5,-7.3 12.5,-7.3 l 1.9,0 c 0.2,-0.6 0.2,-1.2 0.2,-1.7 0,-2.1 -2.2,-2.7 -4.1,-2.7 -2.3,0 -4.6,0.6 -6.7,1.6 l 0.8,-4.2 c 2.3,-0.8 4.6,-1.2 6.9,-1.2 4.1,0 7.9,1.5 7.9,6.3 0,2.7 -2,10.7 -2.5,14.6 l -4.5,0 0.6,-3.2 z m -5.2,-0.3 c 4,0 5.2,-2.7 6,-6 l -1.9,0 c -2.6,0 -6.9,0.4 -6.9,3.9 0.1,1.4 1.4,2.1 2.8,2.1 z"
                 class="st0"
                 inkscape:connector-curvature="0"
                 style="fill:#00539b" />
              <path
                 id="path4267"
                 d="m 151.6,26.1 c 0.2,-0.9 0.3,-1.8 0.5,-2.7 l 5.1,0 -0.7,3.8 0.1,0 c 1,-2.2 3.6,-4.3 6,-4.3 0.7,0 1.4,0 2,0.2 l -1.1,5.2 c -0.6,-0.2 -1.3,-0.3 -2,-0.3 -3.8,0 -5.6,3.4 -6.3,6.7 l -1.9,9.2 -5.3,0 3.6,-17.8 z"
                 class="st0"
                 inkscape:connector-curvature="0"
                 style="fill:#00539b" />
              <path
                 id="path4269"
                 d="m 168.5,35.2 c 0,3.8 2,5.2 5.7,5.2 2.2,0 4.3,-0.6 6.3,-1.5 l -0.7,4.2 c -2.1,0.6 -4.3,1.1 -6.5,1.1 -5.9,0 -9.8,-2.9 -9.8,-8.9 0,-6.3 4.9,-12.4 11.6,-12.4 5,0 8.4,2.6 8.4,7.8 0,1.5 -0.2,3.1 -0.5,4.6 l -14.5,0 z m 9.7,-3.6 c 0.1,-0.5 0.1,-0.9 0.1,-1.4 0,-2.2 -1.1,-3.4 -3.4,-3.4 -3.3,0 -4.7,2 -5.7,4.8 l 9,0 z"
                 class="st0"
                 inkscape:connector-curvature="0"
                 style="fill:#00539b" />
            </g>
          </g>
        </g>
        <text
           sodipodi:linespacing="125%"
           id="text4303"
           y="903.97296"
           x="1783.8699"
           style="font-style:normal;font-weight:normal;font-size:39.14281464px;line-height:125%;font-family:sans-serif;letter-spacing:0px;word-spacing:0px;fill:#000000;fill-opacity:1;stroke:none;stroke-width:1px;stroke-linecap:butt;stroke-linejoin:miter;stroke-opacity:1"
           xml:space="preserve"><tspan
             style="font-size:78.28562927px;fill:#5f5f5f;fill-opacity:1"
             y="903.97296"
             x="1783.8699"
             id="tspan4305"
             sodipodi:role="line">coded by</tspan></text>
      </g>
    </g>
  </g>
  <style
     id="style4137"
     type="text/css">
	.st0{fill:#0038A5;}
</style>
  <style
     id="style4233"
     type="text/css"> .st0{fill:#00539B;} .st1{fill:#00A94F;} </style>
</svg>
